<svg height="512pt" viewBox="-26 0 512 512.00002" width="512pt" xmlns="http://www.w3.org/2000/svg"><path d="m138.847656 512c-2.789062 0-5.410156-1.339844-7.039062-3.601562-1.632813-2.261719-2.078125-5.171876-1.195313-7.820313l54.929688-164.878906c.980469-2.945313 3.457031-5.144531 6.496093-5.769531 3.042969-.625 6.183594.421874 8.246094 2.742187 2.058594 2.320313 2.726563 5.566406 1.746094 8.511719l-54.929688 164.878906c-1.183593 3.554688-4.511718 5.945312-8.253906 5.9375zm0 0" fill="#7f8c8d"/><path d="m277.695312 512c-3.738281 0-7.054687-2.390625-8.234374-5.9375l-54.933594-164.878906c-1.515625-4.554688.949218-9.472656 5.503906-10.988282 4.550781-1.511718 9.46875.949219 10.984375 5.503907l54.933594 164.878906c.882812 2.652344.433593 5.5625-1.203125 7.828125-1.632813 2.261719-4.257813 3.601562-7.050782 3.59375zm0 0" fill="#7f8c8d"/><path d="m208.269531 512c-4.792969 0-8.675781-3.886719-8.675781-8.679688v-164.878906c0-4.792968 3.882812-8.679687 8.675781-8.679687s8.679688 3.886719 8.679688 8.679687v164.878906c0 4.792969-3.886719 8.679688-8.679688 8.679688zm0 0" fill="#95a5a5"/><path d="m263.203125 468.609375h-109.863281c-4.792969 0-8.679688-3.882813-8.679688-8.675781 0-4.792969 3.886719-8.679688 8.679688-8.679688h109.863281c4.792969 0 8.675781 3.886719 8.675781 8.679688 0 4.792968-3.882812 8.675781-8.675781 8.675781zm0 0" fill="#35495e"/><path d="m147.527344 286.371094h121.488281v17.359375c0 19.167969-15.539063 34.710937-34.710937 34.710937h-52.066407c-19.171875 0-34.710937-15.542968-34.710937-34.710937zm0 0" fill="#35495e"/><path d="m121.492188 251.660156h173.558593v34.710938c0 4.792968-3.886719 8.679687-8.679687 8.679687h-156.203125c-4.792969 0-8.675781-3.886719-8.675781-8.679687zm0 0" fill="#2c3e50"/><path d="m60.746094 173.558594-52.066406 8.679687v-60.746093l52.066406 8.675781zm0 0" fill="#a5a5a4"/><path d="m8.679688 199.59375c-4.792969 0-8.679688-3.886719-8.679688-8.679688v-78.101562c0-4.792969 3.886719-8.675781 8.679688-8.675781 4.789062 0 8.675781 3.882812 8.675781 8.675781v78.101562c0 4.792969-3.886719 8.679688-8.675781 8.679688zm0 0" fill="#35495e"/><path d="m355.796875 138.847656h60.746094v78.101563h-60.746094zm0 0" fill="#a5a5a4"/><path d="m430.679688 238.21875-26.035157-10.414062c-3.292969-1.316407-5.457031-4.503907-5.457031-8.050782v-83.710937c0-3.546875 2.164062-6.734375 5.457031-8.050781l26.035157-10.414063c2.671874-1.066406 5.699218-.742187 8.082031.871094 2.382812 1.613281 3.8125 4.304687 3.816406 7.183593v104.53125c-.003906 2.878907-1.433594 5.570313-3.816406 7.183594-2.382813 1.613282-5.410157 1.9375-8.082031.871094zm0 0" fill="#35495e"/><path d="m277.695312 79.578125 52.152344-52.070313 24.472656 24.472657-52.066406 52.15625h-24.558594zm0 0" fill="#d1d4d1"/><path d="m277.695312 112.8125h-190.914062c-3.105469.007812-5.976562-1.644531-7.53125-4.332031-1.554688-2.683594-1.554688-5.996094-.003906-8.683594l29.714844-52c4.652343-8.089844 13.273437-13.082031 22.605468-13.085937h128.773438c14.378906 0 26.03125 11.65625 26.03125 26.035156v43.390625c0 4.792969-3.882813 8.675781-8.675782 8.675781zm-175.964843-17.355469h167.285156v-34.710937c0-4.792969-3.882813-8.679688-8.675781-8.679688h-128.773438c-3.109375-.007812-5.984375 1.648438-7.539062 4.339844zm0 0" fill="#547580"/><path d="m355.796875 0h78.101563c14.378906 0 26.035156 11.65625 26.035156 26.035156 0 14.375-11.65625 26.03125-26.035156 26.03125h-78.101563c-14.378906 0-26.035156-11.65625-26.035156-26.03125 0-14.378906 11.65625-26.035156 26.035156-26.035156zm0 0" fill="#2c3e50"/><path d="m147.527344 112.8125c-4.792969 0-8.679688-3.882812-8.679688-8.675781v-60.746094c0-4.792969 3.886719-8.679687 8.679688-8.679687 4.789062 0 8.675781 3.886718 8.675781 8.679687v60.746094c0 4.792969-3.886719 8.675781-8.675781 8.675781zm0 0" fill="#547580"/><path d="m338.441406 260.339844h-260.339844c-14.378906 0-26.035156-11.65625-26.035156-26.035156v-112.8125c0-14.378907 11.65625-26.035157 26.035156-26.035157h260.339844c14.378906 0 26.03125 11.65625 26.03125 26.035157v112.8125c0 14.378906-11.652344 26.035156-26.03125 26.035156zm0 0" fill="#95a5a5"/><path d="m364.472656 173.558594v60.746094c-.039062 14.359374-11.671875 25.992187-26.03125 26.035156h-260.339844c-14.359374-.042969-25.992187-11.675782-26.035156-26.035156v-60.746094zm0 0" fill="#7f8c8d"/><path d="m182.238281 147.527344v26.03125c0 14.378906-11.65625 26.035156-26.035156 26.035156h-52.066406c-14.378907 0-26.035157-11.65625-26.035157-26.035156v-26.03125c0-14.378906 11.65625-26.035156 26.035157-26.035156h52.066406c14.378906 0 26.035156 11.65625 26.035156 26.035156zm0 0" fill="#7f8c8d"/><path d="m104.136719 138.847656h52.066406c4.792969 0 8.679687 3.886719 8.679687 8.679688v26.03125c0 4.792968-3.886718 8.679687-8.679687 8.679687h-52.066406c-4.792969 0-8.679688-3.886719-8.679688-8.679687v-26.03125c0-4.792969 3.886719-8.679688 8.679688-8.679688zm0 0" fill="#7ed09e"/><g fill="#464f5d"><path d="m121.492188 216.949219c0 4.792969-3.886719 8.679687-8.679688 8.679687s-8.675781-3.886718-8.675781-8.679687 3.882812-8.679688 8.675781-8.679688 8.679688 3.886719 8.679688 8.679688zm0 0"/><path d="m156.203125 216.949219c0 4.792969-3.886719 8.679687-8.675781 8.679687-4.792969 0-8.679688-3.886718-8.679688-8.679687s3.886719-8.679688 8.679688-8.679688c4.789062 0 8.675781 3.886719 8.675781 8.679688zm0 0"/></g></svg>